# xmcd
#
# Track frame offsets: 
#        150
#        16070
#        30565
#        46845
#        63430
#        87287
#        103225
#        127372
#        144055
#        156505
#
# Disc length: 2289 seconds
#
# Revision: 1
# Processed by: cddbd v1.5.1PL0 Copyright (c) Steve Scherf et al.
# Submitted via: ExactAudioCopy v0.95a5
#
DISCID=8108ef0a
DTITLE=Various Artist - Troubadours of Groove
DYEAR=1996
DGENRE=Jazz
TTITLE0=Jimmy McGriff - Groove Grease
TTITLE1=Jimmy McGriff - The Bird
TTITLE2=Jimmy McGriff - Plain Brown Bag
TTITLE3=Jimmy McGriff - Ain't It Funky Now
TTITLE4=Richard "Groove" Holmes - Night Glider
TTITLE5=Richard "Groove" Holmes - Fly Jack
TTITLE6=Richard "Groove" Holmes - You've Got It Bad
TTITLE7=Richard "Groove" Holmes - Red Onion
TTITLE8=Junior Parker - River's Invitation
TTITLE9=Junior Parker - Love Ain't Nothin' But a Business Goin' On
EXTD=YEAR: 1996
EXTT0=
EXTT1=
EXTT2=
EXTT3=
EXTT4=
EXTT5=
EXTT6=
EXTT7=
EXTT8=
EXTT9=
PLAYORDER=
